<?xml version="1.0" encoding="utf-8"?>
<!-- Generator: Adobe Illustrator 22.0.0, SVG Export Plug-In . SVG Version: 6.00 Build 0)  -->
<svg version="1.1" id="圖層_1" xmlns="http://www.w3.org/2000/svg" xmlns:xlink="http://www.w3.org/1999/xlink" x="0px" y="0px"
	 viewBox="0 0 300 70" style="enable-background:new 0 0 300 70;" xml:space="preserve">
<style type="text/css">
	.st0{fill:#040000;}
</style>
<g>
	<path class="st0" d="M219.6,32.6c0,6.9-0.1,13.9,0,20.8c0,1.7-0.4,2.3-2.2,2.3c-5.8-0.1-5.8,0-5.8-5.8c0-11,0-22,0-33.1
		c0-1.9,0.2-2.7,2.4-2.7c5.6,0.2,5.6,0,7.3,5.4c1.1,3.4,2.2,6.8,3.5,10.7c1.6-4.9,3.1-9.2,4.4-13.5c0.5-1.9,1.3-2.6,3.4-2.5
		c5.6,0.1,5.6,0,5.6,5.8c0,11.1-0.1,22.2,0,33.3c0,2-0.5,2.4-2.4,2.4c-5.8-0.1-5.8,0-5.8-5.9c0-5.8,0-11.6,0-17.3
		c-0.1,0-0.3-0.1-0.4-0.1c-0.8,2.2-1.6,4.3-2.4,6.5c-0.4,1.2-0.8,2-2.4,2c-1.7,0-1.9-1-2.3-2.1c-0.8-2.1-1.5-4.1-2.3-6.2
		C219.9,32.6,219.7,32.6,219.6,32.6z"/>
	<path class="st0" d="M69.6,35c0,6.2,0,12.5,0,18.7c0,1.5-0.4,2-2,2c-6.2,0.1-6.2,0.1-6.2-6c0-3-0.1-6.1,0-9.1
		c0.1-1.6-0.5-2.1-2.1-2c-2.6,0.2-6.1-0.8-7.7,0.5c-1.7,1.4-0.4,5-0.5,7.6c-0.1,2.4-0.1,4.8,0,7.2c0.1,1.5-0.5,1.8-1.9,1.8
		C43,55.9,43,55.9,43,49.6c0-11,0.1-22,0-33c0-1.9,0.5-2.4,2.4-2.4c5.8,0.1,5.8,0,5.8,5.9c0,2.9,0.1,5.9,0,8.8c0,1.4,0.3,2,1.8,1.9
		c2.7-0.2,6.2,1.1,8-0.5c1.7-1.5,0.4-5,0.5-7.6c0.1-2.2,0.1-4.4,0-6.6c-0.1-1.5,0.5-1.8,1.9-1.8c6.3-0.2,6.3-0.2,6.3,5.9
		C69.6,25.1,69.6,30,69.6,35z"/>
	<path class="st0" d="M245.4,34.9c0-3.2-0.2-6.4,0.1-9.6c0.6-6.9,5.2-11.1,11.8-11.5c8-0.4,13,2.9,14.1,10.3
		c1.1,7.2,1.1,14.7,0,21.9c-1.2,7.3-6.4,10.7-14.2,10.2c-6.7-0.4-11.2-5-11.7-11.9C245.2,41.1,245.3,38,245.4,34.9
		C245.4,34.9,245.4,34.9,245.4,34.9z"/>
	<path class="st0" d="M285.5,14.9c0.7,0,1.4-0.1,2.1,0c1.5,0.1,2.4,1.1,2.4,2.5c0.1,1.7-0.6,2.8-2.2,3c-1.5,0.2-3.1,0.2-4.7,0
		c-1.5-0.2-2.3-1.4-2.2-3c0.1-1.4,1.1-2.4,2.5-2.5C284.2,14.9,284.8,14.9,285.5,14.9C285.5,14.9,285.5,14.9,285.5,14.9z"/>
	<path class="st0" d="M148.3,42.6c1.9-0.4,3.4,0,4.3,2.8c1,3.3,7.1,3.9,9.4,1.3c1.9-2.1,1.1-5.6-1.9-6.8c-2.3-1-4.7-1.5-7-2.4
		c-6.4-2.3-9.7-7.6-8.6-13.9c1-5.8,5.9-9.7,12.5-9.9c7.7-0.2,12.9,3.8,13.8,10.5c0.2,1.7,0.1,2.9-2.1,2.6c-0.8-0.1-1.7-0.1-2.5,0
		c-1.9,0.1-3.2,0.1-4-2.4c-1-3.2-6.8-3.7-8.9-0.9c-1.6,2.1-0.7,5.1,2.1,6.2c2.3,0.9,4.7,1.5,7,2.3c6.6,2.4,9.5,7.7,8.2,14.9
		c-0.9,5.4-5.6,9-12,9.3c-7.7,0.3-12.8-2.9-14.5-9.1C143.2,42.6,143.2,42.6,148.3,42.6z"/>
	<path class="st0" d="M177.8,30.1c0-4.7,0.1-9.4,0-14c0-1.4,0.4-1.8,1.8-1.9c6.3-0.2,6.3-0.2,6.3,5.9c0,7.3-0.1,14.5,0,21.8
		c0,4.2,1.4,5.9,4.3,6.3c3.8,0.5,5.9-1.4,6-5.6c0.1-8.2,0-16.3,0-24.5c0-3.8,0-3.8,3.7-3.8c4.5,0,4.5,0,4.5,4.4c0,7.3,0,14.7,0,22
		c0,2-0.1,4-0.6,6c-1.2,5.2-4.9,8.7-10.2,9.4c-6.1,0.9-11.3-1.2-13.9-5.7c-1.7-2.9-2-6.1-2-9.3C177.8,37.5,177.8,33.8,177.8,30.1z"
		/>
	<path class="st0" d="M105.8,55.5c-7.9,0.7-7.9,0.7-10-6.7c-0.4-1.6-1-2.5-2.8-2.1c-0.1,0-0.2,0-0.3,0c-2.5,0-5.4-0.7-7.3,0.3
		c-1.9,1.1-1.7,4.4-2.3,6.7c-0.4,1.5-1,2.1-2.6,2c-2-0.2-4,0-6.4,0c1.7-5.9,3.4-11.6,5-17.3c2.1-7.3,4.3-14.6,6.3-21.9
		c0.5-1.8,1.3-2.4,3.2-2.3c5.2,0.1,5.2,0,6.7,5c3.3,11.5,6.7,23,10.1,34.5C105.6,54.3,106,54.9,105.8,55.5z"/>
	<path class="st0" d="M10,35c0.1-3.9-0.3-7.6,0.5-11.4c1.5-7,7.1-10.7,15.2-9.8c6.4,0.7,11,6.1,10.9,12.7c0,1-0.2,1.6-1.3,1.5
		c-0.9-0.1-1.8-0.1-2.8,0c-2.5,0.3-4.2,0-4.5-3.2c-0.2-2.3-2.4-3.1-4.5-3.1c-2.1,0-4,0.7-4.7,3c-0.3,0.9-0.5,1.8-0.5,2.7
		c0,5.1-0.1,10.1,0,15.2c0.1,3.7,1.6,5.5,4.6,5.7c3.2,0.2,4.8-1,5.5-4.7c0.2-1.2,0.6-1.8,1.9-1.6c0.7,0.1,1.5,0,2.2,0
		c4.8,0,4.8,0,3.7,4.7c-1.6,6.5-6.2,9.9-13.4,9.7c-6.7-0.2-11-3.9-12.3-10.4C9.8,42.2,10.2,38.5,10,35z"/>
	<path class="st0" d="M127.8,39c0,4.8-0.1,9.6,0,14.3c0,1.7-0.3,2.4-2.2,2.4c-6,0-6,0.1-6-5.9c0-8.4-0.1-16.7,0.1-25.1
		c0-2.1-0.6-2.8-2.6-2.5c-1,0.1-2,0-3,0c-3.9,0-3.9,0-3.9-3.9c0-4.1,0-4.1,4.2-4.1c7,0,14,0,20.9,0c1.5,0,2,0.4,2,1.9
		c0.1,6,0.1,6-5.9,6c-3.6,0-3.6,0-3.6,3.6C127.8,30.2,127.8,34.6,127.8,39z"/>
</g>
</svg>
